<svg xmlns="http://www.w3.org/2000/svg" xmlns:xlink="http://www.w3.org/1999/xlink" width="500" zoomAndPan="magnify" viewBox="0 0 375 374.999991" height="500" preserveAspectRatio="xMidYMid meet" version="1.0"><defs><clipPath id="6419305be4"><path d="M 182 68.117188 L 358 68.117188 L 358 169 L 182 169 Z M 182 68.117188 " clip-rule="nonzero"/></clipPath></defs><path fill="#ffd100" d="M 200.222656 78.203125 C 199.011719 78.203125 197.761719 78.328125 196.550781 78.410156 L 196.425781 78.410156 C 195.089844 78.535156 193.632812 78.785156 191.964844 79.242188 C 190.296875 79.703125 188.667969 80.203125 187.125 80.828125 C 184.707031 81.785156 182.539062 82.703125 180.496094 83.660156 C 178.121094 84.746094 175.574219 85.910156 172.40625 87.285156 C 169.402344 88.578125 167.859375 92.164062 168.863281 95.453125 C 168.613281 95.578125 168.363281 95.703125 168.109375 95.828125 C 167.777344 95.996094 167.445312 96.164062 167.109375 96.289062 L 166.191406 96.703125 C 165.234375 97.164062 164.273438 97.621094 163.316406 98.078125 C 162.605469 98.414062 161.898438 98.789062 161.1875 99.121094 C 159.769531 99.832031 158.3125 100.539062 156.894531 101.289062 L 155.226562 102.207031 L 151.304688 104.332031 L 151.054688 104.457031 C 147.84375 105.957031 144.382812 107.625 141.046875 109.582031 C 139.714844 110.375 138.253906 111.289062 136.667969 112.375 C 135.125 113.164062 133.542969 113.957031 132 114.707031 C 130.746094 115.332031 129.496094 115.917969 128.246094 116.542969 C 125.617188 117.832031 122.867188 119.167969 120.195312 120.542969 C 118.90625 121.207031 117.570312 121.875 116.277344 122.542969 C 113.523438 123.917969 110.648438 125.375 107.894531 126.835938 L 102.722656 129.585938 L 95.71875 133.292969 L 94.09375 134.167969 C 90.382812 136.167969 86.542969 138.210938 82.75 140.171875 C 82.167969 140.460938 81.625 140.753906 81.039062 141.085938 C 79.707031 141.796875 78.328125 142.503906 76.996094 143.171875 L 74.828125 144.214844 C 73.410156 144.921875 71.949219 145.589844 70.53125 146.296875 L 68.945312 147.089844 C 68.195312 147.464844 67.445312 147.796875 66.738281 148.171875 L 66.570312 148.253906 C 65.695312 148.671875 64.820312 149.089844 63.941406 149.503906 C 63.066406 149.964844 62.273438 150.671875 61.523438 151.296875 L 61.191406 151.589844 L 60.941406 151.796875 L 60.730469 151.964844 C 59.941406 152.839844 59.398438 153.882812 59.105469 155.046875 C 58.980469 155.632812 58.898438 156.257812 58.9375 156.882812 C 58.019531 157.382812 57.0625 157.839844 56.144531 158.339844 C 54.058594 159.382812 51.933594 160.464844 49.890625 161.675781 C 48.640625 162.425781 47.636719 163.007812 46.679688 163.632812 C 46.054688 163.425781 45.386719 163.339844 44.675781 163.339844 C 42.757812 163.339844 40.925781 164.132812 39.671875 165.507812 C 38.839844 166.425781 37.753906 167.632812 36.671875 168.84375 C 35.253906 170.425781 34 172.21875 32.917969 173.800781 C 32.792969 174.011719 32.625 174.21875 32.5 174.425781 C 31.792969 174.425781 31.082031 174.550781 30.414062 174.761719 L 29.582031 175.136719 L 28.746094 175.511719 C 27.746094 176.175781 26.953125 177.09375 26.414062 178.175781 L 26.328125 178.34375 C 25.160156 180.34375 23.992188 182.386719 22.949219 184.46875 C 22.617188 185.136719 22.324219 185.761719 21.992188 186.429688 C 21.324219 187.804688 20.65625 189.222656 19.90625 190.597656 L 19.488281 191.347656 L 19.074219 192.097656 C 18.238281 193.597656 17.320312 195.886719 17.65625 198.179688 C 17.78125 199.015625 17.90625 199.765625 18.195312 200.554688 C 18.53125 201.390625 18.949219 202.179688 19.363281 202.804688 C 20.074219 203.847656 21.03125 204.722656 21.699219 205.265625 C 23.328125 206.597656 25.246094 207.640625 26.871094 208.515625 C 27.957031 209.097656 29.082031 209.640625 30.164062 210.140625 C 31 210.558594 31.875 210.972656 32.710938 211.390625 C 33.210938 211.640625 33.75 211.890625 34.253906 212.140625 C 35.753906 212.890625 37.335938 213.683594 38.839844 214.558594 C 39.339844 214.851562 39.839844 215.140625 40.296875 215.390625 C 41.714844 216.226562 43.175781 217.058594 44.59375 217.933594 C 48.804688 220.558594 52.976562 223.183594 57.1875 225.808594 C 65.570312 231.101562 72.699219 235.394531 80.164062 239.144531 L 81.039062 239.605469 C 84.835938 241.523438 88.714844 243.480469 92.632812 245.273438 C 97.511719 247.480469 101.972656 249.566406 106.3125 251.566406 C 109.480469 253.066406 112.691406 254.605469 115.820312 256.109375 C 120.363281 258.316406 125.074219 260.609375 129.789062 262.691406 C 131.75 263.566406 133.707031 264.402344 135.667969 265.277344 C 137.878906 266.234375 140.171875 267.234375 142.382812 268.234375 C 144.214844 269.066406 146.09375 269.902344 147.929688 270.734375 C 150.304688 271.820312 152.765625 272.945312 155.226562 273.984375 C 156.351562 274.484375 157.519531 274.984375 158.644531 275.484375 C 158.601562 275.859375 158.601562 276.234375 158.601562 276.609375 C 158.730469 278.488281 159.605469 280.320312 160.9375 281.363281 C 163.609375 283.402344 165.859375 284.902344 168.070312 286.070312 C 169.070312 286.570312 170.03125 287.113281 171.03125 287.613281 L 171.28125 287.738281 C 172.699219 288.445312 174.117188 289.238281 175.492188 289.988281 L 176.242188 290.40625 C 177.203125 290.945312 178.121094 291.53125 179.035156 292.113281 C 179.496094 292.40625 179.996094 292.695312 180.453125 293.03125 C 181.746094 293.824219 183.164062 294.65625 184.792969 295.28125 C 185.792969 295.65625 186.835938 296.03125 187.960938 296.199219 C 188.753906 296.324219 189.585938 296.363281 190.378906 296.40625 L 190.714844 296.40625 C 191.003906 296.40625 191.296875 296.449219 191.589844 296.449219 C 191.839844 296.449219 192.046875 296.449219 192.296875 296.40625 C 194.589844 296.28125 196.71875 294.90625 197.84375 292.863281 C 198.34375 292.65625 198.84375 292.488281 199.34375 292.28125 L 200.136719 291.988281 C 200.886719 291.695312 201.636719 291.363281 202.390625 291.03125 C 202.765625 290.863281 203.097656 290.695312 203.472656 290.570312 C 205.515625 289.695312 207.519531 288.738281 209.476562 287.78125 L 209.855469 287.613281 C 214.230469 285.527344 218.359375 283.238281 222.15625 280.777344 C 226.242188 278.152344 230.078125 275.320312 232.996094 273.152344 C 238.375 269.109375 243.796875 265.027344 249.175781 260.984375 L 254.015625 257.523438 C 254.390625 257.234375 254.808594 256.941406 255.183594 256.691406 C 256.226562 255.941406 257.308594 255.148438 258.433594 254.398438 L 260.144531 253.273438 C 263.605469 251.023438 267.148438 248.691406 270.652344 246.398438 C 274.199219 244.105469 277.949219 241.730469 282.121094 239.0625 C 282.746094 239.230469 283.414062 239.355469 284.082031 239.355469 C 285.125 239.355469 286.125 239.105469 287.082031 238.644531 L 293.503906 235.4375 L 299.925781 232.226562 L 301.011719 231.6875 C 304.679688 229.851562 308.476562 227.9375 312.144531 225.894531 C 320.070312 221.476562 327.949219 216.765625 335.621094 211.890625 L 336 211.640625 C 336.625 211.265625 337.25 210.847656 337.832031 210.472656 C 338.667969 209.933594 339.667969 209.265625 340.628906 208.597656 C 341.960938 207.640625 342.960938 206.558594 344.089844 205.222656 C 344.253906 205.015625 344.378906 204.847656 344.546875 204.640625 C 344.628906 204.558594 344.714844 204.472656 344.796875 204.390625 C 345.171875 203.933594 345.546875 203.515625 345.921875 203.054688 C 346.546875 202.054688 346.925781 200.972656 347.007812 199.804688 C 347.425781 198.554688 347.675781 197.222656 347.839844 196.011719 C 348.175781 194.011719 348.300781 191.847656 348.175781 188.929688 C 348.089844 187.21875 348.007812 185.511719 347.925781 183.59375 L 348.089844 182.261719 L 348.214844 181.136719 C 348.464844 179.175781 348.59375 177.050781 348.59375 174.84375 C 348.59375 173.257812 348.550781 171.21875 348.257812 169.175781 C 348.257812 169.050781 348.214844 168.96875 348.214844 168.84375 C 349.175781 167.675781 349.71875 166.339844 349.71875 165.007812 C 349.757812 162.632812 349.21875 160.964844 347.925781 159.507812 C 347.425781 158.964844 346.925781 158.589844 346.382812 158.171875 C 346.214844 158.046875 346.046875 157.921875 345.882812 157.796875 C 345.382812 157.421875 344.878906 157.046875 344.378906 156.671875 C 343.460938 156.007812 342.585938 155.339844 341.710938 154.757812 C 339.792969 153.382812 337.875 152.046875 335.957031 150.671875 C 332.914062 148.503906 329.785156 146.378906 326.742188 144.339844 L 325.199219 143.296875 C 323.03125 141.835938 320.859375 140.421875 318.816406 139.085938 C 317.273438 138.085938 315.691406 137.085938 314.148438 136.167969 L 312.980469 135.417969 C 309.308594 133.167969 305.515625 131.042969 301.929688 129.042969 C 300.96875 128.5 299.96875 127.960938 299.007812 127.417969 C 296.007812 125.75 292.878906 124.042969 289.878906 122.292969 C 286.417969 120.25 282.953125 118.125 279.617188 116.042969 L 277.742188 114.875 C 269.570312 109.832031 262.730469 105.914062 256.183594 102.621094 L 255.933594 102.496094 L 256.015625 102.539062 L 255.472656 102.246094 C 251.761719 100.371094 247.96875 98.453125 244.132812 96.703125 C 239.835938 94.746094 235.375 92.703125 230.996094 90.496094 L 230.789062 90.410156 L 230.578125 90.328125 L 229.203125 89.621094 C 225.574219 87.703125 221.988281 85.828125 218.359375 83.953125 C 214.941406 82.160156 211.855469 80.617188 208.476562 79.492188 C 206.808594 78.910156 204.890625 78.492188 202.679688 78.160156 C 201.847656 78.242188 201.097656 78.203125 200.222656 78.203125 Z M 200.222656 78.203125 " fill-opacity="1" fill-rule="nonzero"/><path fill="#000000" d="M 239.960938 96.828125 C 239.210938 97.496094 238.460938 98.164062 237.585938 98.703125 C 237.125 98.996094 236.667969 99.246094 236.207031 99.539062 C 235.25 100.121094 234.25 100.746094 233.246094 101.289062 C 231.371094 102.371094 229.410156 103.457031 227.410156 104.289062 C 225.367188 105.164062 223.238281 105.914062 221.238281 106.914062 C 219.234375 107.957031 217.277344 109.039062 215.359375 110.207031 C 213.273438 111.457031 211.144531 112.582031 209.019531 113.75 C 205.140625 115.832031 201.261719 117.917969 197.425781 120.042969 C 195.300781 121.25 193.214844 122.417969 191.089844 123.625 C 189.046875 124.792969 187.085938 126 185.082031 127.25 C 183.125 128.460938 181.164062 129.585938 179.160156 130.753906 C 177.203125 131.878906 175.242188 132.917969 173.199219 133.917969 C 169.277344 135.917969 165.359375 138.003906 161.4375 140.046875 C 159.480469 141.046875 157.519531 142.046875 155.558594 143.046875 C 153.558594 144.046875 151.515625 145.046875 149.554688 146.089844 C 145.050781 148.503906 140.546875 150.964844 136.085938 153.464844 C 132.582031 155.421875 129.039062 157.257812 125.578125 159.257812 C 121.15625 161.757812 116.734375 164.300781 112.355469 166.882812 C 108.8125 168.96875 105.269531 171.132812 101.808594 173.300781 C 99.597656 174.675781 97.386719 176.050781 95.136719 177.425781 C 93.007812 178.71875 90.839844 179.886719 88.671875 181.136719 C 86.753906 182.261719 84.710938 183.21875 82.75 184.261719 C 80.75 185.304688 78.664062 186.21875 76.621094 187.179688 C 72.949219 188.886719 69.070312 190.179688 65.234375 191.429688 C 64.441406 192.054688 63.859375 192.886719 63.527344 193.886719 C 63.066406 195.097656 62.859375 196.429688 62.859375 197.765625 C 64.777344 197.140625 66.988281 197.304688 68.90625 198.304688 C 71.03125 199.472656 73.160156 200.597656 75.328125 201.640625 C 76.246094 201.265625 77.160156 200.890625 78.121094 200.515625 C 79.207031 200.054688 80.289062 199.515625 81.375 199.015625 C 85.417969 197.140625 89.339844 195.054688 93.175781 192.847656 C 95.011719 191.804688 96.84375 190.761719 98.636719 189.636719 C 100.597656 188.429688 102.597656 187.179688 104.558594 185.96875 C 108.730469 183.429688 112.941406 180.886719 117.109375 178.386719 C 124.867188 173.761719 132.832031 169.507812 140.714844 165.132812 C 142.507812 164.132812 144.34375 163.132812 146.136719 162.132812 C 148.21875 161.007812 150.261719 159.839844 152.390625 158.757812 C 156.808594 156.546875 161.1875 154.296875 165.609375 152.046875 C 169.738281 149.921875 173.867188 147.753906 177.996094 145.628906 C 182.039062 143.546875 185.917969 141.128906 189.753906 138.710938 C 193.589844 136.335938 197.550781 134.167969 201.511719 131.960938 C 205.390625 129.792969 209.3125 127.75 213.230469 125.667969 C 214.148438 125.167969 215.066406 124.710938 215.941406 124.167969 C 216.984375 123.542969 217.984375 122.917969 219.070312 122.335938 C 221.070312 121.207031 223.03125 120.042969 225.117188 119.125 C 227.203125 118.207031 229.371094 117.5 231.414062 116.417969 C 233.371094 115.417969 235.292969 114.417969 237.167969 113.25 C 237.960938 112.75 238.792969 112.25 239.585938 111.789062 C 240.753906 111.082031 241.753906 110.125 242.796875 109.25 C 244.296875 108 245.964844 107 247.59375 105.957031 C 248.386719 105.332031 248.96875 104.496094 249.300781 103.496094 C 249.71875 102.371094 249.929688 101.121094 249.96875 99.871094 C 247.800781 98.996094 245.632812 98.078125 243.464844 97.203125 C 242.839844 96.953125 242.214844 96.578125 241.589844 96.289062 C 241.378906 96.203125 241.171875 96.078125 240.960938 95.996094 C 240.585938 96.289062 240.296875 96.539062 239.960938 96.828125 Z M 239.960938 96.828125 " fill-opacity="1" fill-rule="nonzero"/><path fill="#000000" d="M 300.300781 125.085938 C 298.175781 126 296.089844 127 293.964844 127.875 C 291.796875 128.753906 289.667969 129.667969 287.582031 130.667969 C 285.664062 131.585938 283.832031 132.628906 282.039062 133.667969 C 280.035156 134.792969 278.035156 136.003906 276.074219 137.210938 C 274.238281 138.378906 272.445312 139.585938 270.652344 140.835938 C 268.566406 142.335938 266.484375 143.753906 264.355469 145.171875 C 260.855469 147.503906 257.183594 149.589844 253.597656 151.839844 C 249.71875 154.257812 245.839844 156.632812 241.796875 158.757812 C 237.667969 160.925781 233.539062 163.050781 229.371094 165.175781 C 221.28125 169.300781 213.230469 173.425781 205.226562 177.71875 C 197.09375 182.054688 188.917969 186.261719 180.828125 190.597656 C 172.738281 194.929688 164.691406 199.390625 156.601562 203.683594 C 152.097656 206.058594 147.59375 208.472656 143.089844 210.933594 C 141.132812 212.015625 139.171875 213.101562 137.210938 214.183594 C 135.292969 215.226562 133.375 216.226562 131.457031 217.265625 C 128.996094 218.558594 126.535156 219.894531 124.074219 221.226562 C 123.617188 221.476562 123.199219 221.726562 122.742188 221.976562 C 127.746094 224.019531 132.707031 226.101562 137.710938 228.1875 C 139.964844 226.9375 142.171875 225.683594 144.425781 224.433594 C 152.179688 220.144531 160.105469 216.101562 167.902344 211.808594 C 175.785156 207.472656 183.707031 203.179688 191.714844 199.015625 C 196.132812 196.722656 200.554688 194.386719 204.933594 192.054688 C 208.726562 190.011719 212.523438 187.96875 216.359375 186.011719 C 224.574219 181.761719 232.832031 177.675781 241.046875 173.382812 C 245.132812 171.257812 249.175781 169.050781 253.097656 166.59375 C 257.140625 164.089844 261.1875 161.632812 265.230469 159.132812 C 266.898438 158.089844 268.566406 156.964844 270.195312 155.796875 C 272.28125 154.296875 274.363281 152.839844 276.492188 151.382812 C 280.035156 148.964844 283.832031 146.796875 287.625 144.796875 C 290.042969 143.546875 292.460938 142.378906 295.007812 141.378906 C 296.214844 140.878906 297.425781 140.421875 298.632812 139.878906 C 299.925781 139.296875 301.21875 138.671875 302.554688 138.085938 C 303.347656 137.460938 303.929688 136.628906 304.265625 135.628906 C 305.015625 133.710938 305.097656 131.417969 304.765625 129.378906 C 304.597656 128.167969 304.179688 127.042969 303.511719 126 C 303.179688 125.667969 302.886719 125.335938 302.554688 125.042969 C 302.179688 124.792969 301.84375 124.710938 301.46875 124.710938 C 301.011719 124.75 300.636719 124.835938 300.300781 125.085938 Z M 300.300781 125.085938 " fill-opacity="1" fill-rule="nonzero"/><path fill="#000000" d="M 357.097656 158.882812 C 356.515625 159.132812 355.890625 159.382812 355.304688 159.632812 C 354.511719 160.007812 353.761719 160.425781 353.054688 160.925781 C 352.179688 161.507812 351.300781 162.132812 350.425781 162.757812 C 348.675781 164.132812 347.007812 165.550781 345.171875 166.757812 C 341.292969 169.34375 337.289062 171.71875 333.289062 174.09375 C 329.324219 176.425781 325.488281 179.011719 321.652344 181.511719 C 319.945312 182.636719 318.191406 183.71875 316.480469 184.886719 C 314.523438 186.21875 312.5625 187.554688 310.601562 188.929688 C 306.847656 191.597656 303.054688 194.222656 299.300781 196.890625 C 295.714844 199.429688 292.171875 201.972656 288.5 204.347656 C 280.578125 209.515625 272.53125 214.433594 264.355469 219.183594 C 260.269531 221.558594 256.226562 223.894531 252.136719 226.226562 C 248.59375 228.269531 245.007812 230.144531 241.460938 232.1875 C 232.871094 237.144531 224.28125 242.105469 215.691406 247.105469 C 212.230469 249.105469 208.894531 251.316406 205.476562 253.316406 C 204.097656 254.105469 202.765625 254.898438 201.386719 255.648438 C 200.554688 256.109375 199.761719 256.648438 198.929688 257.066406 C 196.675781 258.191406 194.425781 259.316406 192.171875 260.484375 C 191.089844 261.023438 190.003906 261.523438 188.917969 262.066406 C 188.128906 262.691406 187.542969 263.527344 187.210938 264.527344 C 186.460938 266.441406 186.375 268.734375 186.710938 270.777344 C 186.875 271.984375 187.292969 273.109375 187.960938 274.152344 C 188.292969 274.484375 188.585938 274.820312 188.917969 275.109375 C 189.628906 275.570312 190.378906 275.570312 191.089844 275.109375 C 194.050781 273.695312 196.96875 272.234375 199.886719 270.734375 C 201.804688 269.777344 203.640625 268.652344 205.515625 267.566406 C 207.226562 266.566406 208.9375 265.566406 210.605469 264.566406 C 212.605469 263.359375 214.566406 262.109375 216.566406 260.898438 C 224.867188 256.023438 233.164062 251.191406 241.503906 246.398438 C 245.589844 244.0625 249.679688 241.773438 253.804688 239.519531 C 257.308594 237.605469 260.769531 235.5625 264.230469 233.5625 C 272.40625 228.8125 280.496094 224.019531 288.375 218.894531 C 292.085938 216.476562 295.714844 213.976562 299.300781 211.433594 C 303.054688 208.765625 306.847656 206.183594 310.5625 203.515625 C 314.5625 200.679688 318.566406 197.890625 322.695312 195.222656 C 326.53125 192.761719 330.285156 190.222656 334.164062 187.84375 C 338.042969 185.46875 342.003906 183.21875 345.796875 180.761719 C 347.675781 179.550781 349.46875 178.261719 351.21875 176.84375 C 352.011719 176.175781 352.804688 175.550781 353.679688 174.96875 C 354.804688 174.175781 355.929688 173.34375 357.183594 172.757812 C 357.890625 172.46875 358.558594 172.132812 359.265625 171.882812 C 359.894531 171.382812 360.394531 170.800781 360.683594 170.050781 C 360.601562 169.300781 360.519531 168.550781 360.433594 167.84375 C 360.308594 167.007812 360.183594 166.175781 360.019531 165.382812 C 359.851562 164.675781 359.726562 163.964844 359.558594 163.257812 C 359.390625 162.800781 359.183594 162.382812 358.976562 161.925781 C 358.851562 161.632812 358.726562 161.300781 358.558594 161.007812 C 358.390625 160.675781 358.265625 160.382812 358.101562 160.050781 C 357.847656 159.589844 357.640625 159.089844 357.390625 158.632812 C 357.347656 158.757812 357.222656 158.839844 357.097656 158.882812 Z M 357.097656 158.882812 " fill-opacity="1" fill-rule="nonzero"/><path fill="#000000" d="M 29.164062 172.550781 C 27.121094 172.84375 25.078125 173.84375 23.453125 175.136719 C 22.449219 175.886719 21.699219 176.761719 21.074219 177.84375 C 20.617188 178.886719 20.367188 180.511719 21.742188 181.054688 C 24.660156 182.21875 27.539062 183.46875 30.414062 184.679688 C 32.5 185.554688 34.542969 186.636719 36.585938 187.636719 C 40.675781 189.597656 44.71875 191.597656 48.765625 193.597656 C 56.8125 197.597656 64.734375 201.890625 72.660156 206.222656 C 80.582031 210.558594 88.464844 214.976562 96.425781 219.269531 C 105.144531 223.933594 113.898438 228.519531 122.617188 233.144531 C 126.117188 235.019531 129.621094 236.855469 133.167969 238.6875 C 135.5 239.855469 137.792969 241.0625 140.128906 242.230469 C 142.339844 243.355469 144.46875 244.648438 146.636719 245.8125 C 148.636719 246.9375 150.636719 248.148438 152.597656 249.316406 C 154.558594 250.480469 156.558594 251.605469 158.519531 252.730469 C 162.191406 254.855469 165.816406 257.148438 169.613281 259.066406 C 173.074219 260.816406 176.492188 262.648438 179.996094 264.277344 C 181.789062 265.109375 183.582031 265.859375 185.292969 266.734375 C 187.042969 267.609375 188.792969 268.566406 190.589844 269.402344 C 191.546875 269.816406 192.546875 269.902344 193.546875 269.691406 C 195.59375 269.402344 197.636719 268.402344 199.261719 267.109375 C 200.261719 266.359375 201.011719 265.484375 201.636719 264.402344 C 202.140625 263.277344 202.304688 261.859375 200.972656 261.191406 C 198.96875 260.234375 197.050781 259.148438 195.007812 258.191406 C 193.007812 257.273438 191.003906 256.398438 189.046875 255.398438 C 187.085938 254.398438 185.125 253.441406 183.164062 252.441406 C 180.914062 251.273438 178.660156 250.105469 176.453125 248.898438 C 174.40625 247.773438 172.40625 246.5625 170.363281 245.355469 C 168.363281 244.1875 166.316406 243.023438 164.316406 241.855469 C 162.273438 240.6875 160.273438 239.480469 158.269531 238.3125 C 156.351562 237.1875 154.351562 236.144531 152.390625 235.0625 C 148.804688 233.101562 145.175781 231.3125 141.546875 229.4375 C 137.085938 227.101562 132.625 224.769531 128.203125 222.394531 C 120.449219 218.265625 112.648438 214.226562 104.933594 210.015625 C 96.46875 205.390625 88.003906 200.722656 79.539062 196.097656 C 75.746094 194.011719 71.90625 191.972656 68.03125 189.972656 C 66.070312 188.929688 64.109375 187.84375 62.109375 186.84375 C 59.648438 185.636719 57.1875 184.386719 54.726562 183.179688 C 51.515625 181.59375 48.304688 180.050781 45.050781 178.511719 C 43.34375 177.675781 41.632812 176.84375 39.882812 176.09375 C 37.296875 174.96875 34.667969 173.886719 32.042969 172.800781 C 31.417969 172.550781 30.75 172.425781 30.125 172.425781 C 29.832031 172.425781 29.5 172.46875 29.164062 172.550781 Z M 29.164062 172.550781 " fill-opacity="1" fill-rule="nonzero"/><path fill="#000000" d="M 23.160156 200.304688 C 21.117188 200.597656 19.074219 201.597656 17.445312 202.890625 C 16.445312 203.640625 15.695312 204.515625 15.070312 205.597656 C 14.570312 206.640625 14.359375 208.222656 15.738281 208.808594 C 18.15625 209.808594 20.53125 210.851562 22.824219 212.058594 C 23.742188 212.515625 24.660156 212.976562 25.535156 213.476562 C 26.828125 214.226562 28.121094 214.976562 29.414062 215.765625 C 33.375 218.101562 37.335938 220.476562 41.300781 222.769531 C 45.09375 224.933594 48.972656 226.9375 52.808594 228.976562 C 56.6875 231.019531 60.480469 233.230469 64.316406 235.355469 C 68.40625 237.605469 72.449219 239.894531 76.410156 242.3125 C 78.414062 243.523438 80.414062 244.773438 82.417969 245.980469 C 84.292969 247.148438 86.167969 248.355469 88.128906 249.441406 C 92.089844 251.691406 96.050781 253.980469 99.972656 256.359375 C 103.808594 258.691406 107.644531 261.148438 111.566406 263.359375 C 115.777344 265.777344 119.988281 268.152344 124.242188 270.527344 C 128.035156 272.652344 131.832031 274.859375 135.710938 276.859375 C 137.960938 278.027344 140.253906 279.238281 142.507812 280.402344 C 144.300781 281.320312 146.050781 282.320312 147.84375 283.238281 C 151.972656 285.363281 156.101562 287.445312 160.398438 289.113281 C 162.148438 289.78125 163.898438 290.53125 165.609375 291.238281 C 167.234375 291.90625 168.777344 292.78125 170.320312 293.613281 C 173.449219 295.28125 176.453125 297.238281 179.371094 299.199219 C 180.328125 299.613281 181.332031 299.699219 182.332031 299.488281 C 184.375 299.199219 186.417969 298.199219 188.042969 296.90625 C 189.046875 296.15625 189.796875 295.28125 190.421875 294.199219 C 190.546875 293.78125 190.671875 293.324219 190.839844 292.90625 C 190.878906 292.03125 190.546875 291.40625 189.796875 290.988281 C 186.125 288.53125 182.371094 286.238281 178.410156 284.152344 C 174.492188 282.113281 170.238281 280.777344 166.277344 278.945312 C 162.023438 276.984375 157.894531 274.820312 153.765625 272.609375 C 149.679688 270.441406 145.59375 268.316406 141.507812 266.109375 C 137.753906 264.066406 134.042969 261.898438 130.332031 259.816406 C 126.160156 257.484375 121.992188 255.105469 117.902344 252.648438 C 113.898438 250.230469 109.9375 247.8125 105.933594 245.4375 C 103.976562 244.273438 102.015625 243.148438 100.015625 242.023438 C 98.011719 240.855469 96.011719 239.644531 94.050781 238.4375 C 90.171875 236.105469 86.335938 233.730469 82.457031 231.4375 C 78.746094 229.226562 74.953125 227.1875 71.199219 225.058594 C 69.28125 223.976562 67.363281 222.851562 65.402344 221.808594 C 63.402344 220.726562 61.398438 219.683594 59.398438 218.601562 C 55.1875 216.351562 51.015625 214.101562 46.886719 211.640625 C 43.507812 209.597656 40.132812 207.597656 36.710938 205.597656 C 33.335938 203.597656 29.789062 202.015625 26.203125 200.515625 C 25.578125 200.265625 24.910156 200.140625 24.285156 200.140625 C 23.867188 200.179688 23.492188 200.222656 23.160156 200.304688 Z M 23.160156 200.304688 " fill-opacity="1" fill-rule="nonzero"/><g clip-path="url(#6419305be4)"><path fill="#000000" d="M 192.757812 68.367188 C 192.257812 68.574219 191.714844 68.742188 191.214844 68.949219 C 190.460938 69.242188 189.710938 69.535156 188.960938 69.824219 C 188.753906 69.949219 188.585938 70.035156 188.378906 70.117188 C 188.003906 70.285156 187.667969 70.449219 187.292969 70.660156 C 186.667969 70.949219 186.042969 71.242188 185.417969 71.535156 C 185.125 71.660156 184.832031 71.824219 184.5 71.949219 C 184.207031 72.367188 183.914062 72.824219 183.664062 73.324219 C 183.457031 73.867188 183.289062 74.367188 183.082031 74.867188 C 182.832031 75.742188 182.957031 76.535156 183.5 77.242188 C 187.667969 79.992188 192.089844 82.367188 196.59375 84.496094 C 198.59375 85.410156 200.636719 86.371094 202.640625 87.285156 C 204.722656 88.246094 206.851562 89.160156 208.9375 90.160156 C 213.566406 92.414062 218.195312 94.621094 222.863281 96.789062 C 226.492188 98.496094 230.203125 100.082031 233.832031 101.789062 C 242.503906 105.871094 251.09375 110.039062 259.6875 114.292969 C 263.980469 116.417969 268.277344 118.5 272.570312 120.625 C 276.242188 122.417969 279.953125 124.167969 283.539062 126.085938 C 285.332031 127.042969 287.167969 128 288.960938 128.960938 C 293.046875 131.378906 297.089844 133.835938 301.09375 136.335938 C 304.890625 138.671875 308.726562 140.921875 312.605469 143.171875 C 317.023438 145.714844 321.613281 148.003906 326.074219 150.421875 C 327.910156 151.507812 329.785156 152.546875 331.535156 153.796875 C 333.371094 155.089844 335.207031 156.464844 336.914062 157.964844 C 340.085938 160.757812 343.253906 163.589844 346.214844 166.632812 C 346.464844 166.882812 346.714844 167.132812 346.964844 167.382812 C 347.632812 167.96875 348.425781 168.175781 349.34375 167.96875 C 351.21875 167.757812 353.054688 166.425781 354.347656 165.214844 C 355.390625 164.257812 356.222656 163.175781 356.847656 161.964844 C 357.390625 160.882812 358.015625 159.089844 357.015625 158.007812 C 354.011719 154.882812 350.886719 151.964844 347.632812 149.128906 C 345.964844 147.671875 344.214844 146.253906 342.378906 144.964844 C 340.375 143.546875 338.292969 142.335938 336.207031 141.085938 C 333.039062 139.210938 329.703125 137.585938 326.449219 135.917969 C 322.863281 133.917969 319.277344 131.878906 315.730469 129.753906 C 311.894531 127.460938 308.140625 125.042969 304.304688 122.75 C 302.011719 121.375 299.761719 119.957031 297.425781 118.707031 C 295.007812 117.417969 292.585938 116.167969 290.210938 114.875 C 288.25 113.832031 286.207031 112.875 284.207031 111.914062 C 282.539062 111.082031 280.871094 110.289062 279.203125 109.457031 C 270.320312 105.121094 261.480469 100.707031 252.597656 96.371094 C 244.796875 92.496094 236.835938 88.996094 228.953125 85.328125 C 226.992188 84.410156 225.03125 83.535156 223.074219 82.578125 C 220.863281 81.492188 218.695312 80.410156 216.484375 79.367188 C 211.980469 77.328125 207.519531 75.285156 203.015625 73.199219 C 201.347656 72.449219 199.761719 71.535156 198.136719 70.660156 C 196.757812 69.824219 195.382812 68.992188 194.007812 68.117188 C 193.632812 68.242188 193.171875 68.28125 192.757812 68.367188 Z M 192.757812 68.367188 " fill-opacity="1" fill-rule="nonzero"/></g><path fill="#000000" d="M 193.296875 69.410156 C 191.796875 69.824219 190.296875 70.199219 188.835938 70.699219 C 187.460938 71.160156 186.125 71.742188 184.75 72.324219 C 184.082031 72.617188 183.414062 72.824219 182.789062 73.117188 C 182.164062 73.410156 181.539062 73.742188 180.914062 74.117188 C 179.539062 74.867188 178.246094 75.699219 176.910156 76.535156 C 173.199219 78.703125 169.320312 80.617188 165.484375 82.617188 C 161.355469 84.746094 157.3125 86.953125 153.222656 89.121094 C 149.261719 91.246094 145.21875 93.121094 141.296875 95.246094 C 137.085938 97.539062 132.914062 99.871094 128.789062 102.207031 C 124.699219 104.496094 120.488281 106.625 116.320312 108.75 C 112.273438 110.832031 108.230469 112.957031 104.226562 115.125 C 96.425781 119.332031 88.753906 123.75 81.164062 128.292969 C 77.285156 130.628906 73.449219 132.960938 69.53125 135.167969 C 65.484375 137.460938 61.484375 139.710938 57.4375 141.960938 C 52.976562 144.296875 48.640625 146.714844 44.46875 149.421875 C 43.34375 150.171875 42.21875 150.878906 41.089844 151.632812 C 40.214844 152.171875 39.421875 152.839844 38.589844 153.464844 C 36.628906 154.882812 34.753906 156.339844 32.835938 157.796875 C 29.582031 160.339844 26.246094 162.800781 22.910156 165.257812 C 22.867188 165.300781 22.824219 165.339844 22.742188 165.382812 C 22.617188 165.464844 22.535156 165.589844 22.410156 165.675781 C 22.410156 165.675781 22.367188 165.714844 22.367188 165.714844 C 22.285156 165.800781 22.199219 165.925781 22.160156 166.007812 C 22.117188 166.09375 22.074219 166.132812 22.035156 166.21875 C 22.035156 166.21875 21.992188 166.257812 21.992188 166.257812 C 21.949219 166.34375 21.867188 166.425781 21.824219 166.507812 C 21.699219 166.675781 21.574219 166.84375 21.492188 167.050781 C 21.367188 167.300781 21.199219 167.507812 21.074219 167.757812 C 21.03125 167.84375 20.992188 167.882812 20.949219 167.96875 C 20.867188 168.09375 20.78125 168.257812 20.699219 168.382812 C 20.65625 168.425781 20.617188 168.507812 20.617188 168.550781 C 20.574219 168.71875 20.574219 168.84375 20.574219 169.007812 C 20.28125 171.050781 20.699219 173.300781 21.492188 175.175781 C 21.949219 176.300781 22.574219 177.34375 23.453125 178.175781 C 23.828125 178.425781 24.203125 178.675781 24.578125 178.925781 C 25.371094 179.21875 26.078125 179.050781 26.703125 178.425781 C 30.664062 175.46875 34.667969 172.550781 38.546875 169.507812 C 40.421875 168.007812 42.34375 166.59375 44.300781 165.175781 C 46.21875 163.800781 48.179688 162.507812 50.140625 161.214844 C 50.558594 160.925781 51.015625 160.675781 51.433594 160.382812 C 51.347656 160.425781 51.308594 160.464844 51.222656 160.507812 C 52.851562 159.550781 54.476562 158.546875 56.101562 157.632812 C 58.019531 156.546875 59.941406 155.507812 61.898438 154.421875 C 65.859375 152.214844 69.863281 150.046875 73.785156 147.753906 C 77.789062 145.378906 81.789062 142.960938 85.835938 140.585938 C 90.046875 138.128906 94.257812 135.667969 98.511719 133.292969 C 102.558594 131.042969 106.601562 128.792969 110.648438 126.585938 C 114.652344 124.417969 118.738281 122.375 122.78125 120.292969 C 124.824219 119.25 126.828125 118.207031 128.828125 117.125 C 130.789062 116.125 132.664062 115 134.582031 113.917969 C 138.421875 111.75 142.214844 109.582031 146.136719 107.625 C 150.179688 105.582031 154.226562 103.539062 158.226562 101.371094 C 162.441406 99.121094 166.652344 96.871094 170.90625 94.703125 C 172.949219 93.664062 175.035156 92.621094 177.035156 91.496094 C 179.203125 90.285156 181.332031 89.035156 183.414062 87.746094 C 184.292969 87.203125 185.207031 86.660156 186.167969 86.285156 C 187.25 85.871094 188.335938 85.453125 189.378906 84.953125 C 191.628906 83.992188 194.007812 83.367188 196.382812 82.703125 C 197.21875 82.410156 197.800781 81.828125 198.050781 80.953125 C 198.804688 79.242188 198.59375 76.992188 198.175781 75.242188 C 197.886719 73.867188 197.34375 72.617188 196.59375 71.449219 C 196.007812 70.574219 194.925781 69.285156 193.714844 69.285156 C 193.589844 69.324219 193.464844 69.367188 193.296875 69.410156 Z M 193.296875 69.410156 " fill-opacity="1" fill-rule="nonzero"/><path fill="#000000" d="M 22.785156 165.425781 C 22.660156 165.507812 22.574219 165.632812 22.449219 165.714844 C 22.449219 165.714844 22.410156 165.757812 22.410156 165.757812 C 22.324219 165.839844 22.242188 165.964844 22.199219 166.050781 C 22.160156 166.132812 22.117188 166.175781 22.074219 166.257812 C 22.074219 166.257812 22.035156 166.300781 22.035156 166.300781 C 21.992188 166.382812 21.910156 166.46875 21.867188 166.550781 C 21.742188 166.71875 21.617188 166.882812 21.535156 167.09375 C 21.40625 167.34375 21.242188 167.550781 21.117188 167.800781 C 21.074219 167.882812 21.03125 167.925781 20.992188 168.007812 C 20.90625 168.132812 20.824219 168.300781 20.742188 168.425781 C 20.65625 168.59375 20.574219 168.757812 20.449219 168.925781 C 20.367188 169.050781 20.28125 169.21875 20.199219 169.34375 C 20.15625 169.382812 20.15625 169.425781 20.117188 169.507812 C 20.03125 169.632812 19.992188 169.800781 19.90625 169.925781 C 19.867188 169.96875 19.867188 170.050781 19.824219 170.09375 C 19.824219 170.132812 19.78125 170.132812 19.78125 170.175781 C 19.699219 170.382812 19.613281 170.59375 19.53125 170.800781 C 19.449219 170.96875 19.40625 171.132812 19.324219 171.257812 C 19.28125 171.425781 19.199219 171.550781 19.15625 171.71875 C 19.15625 171.757812 19.113281 171.800781 19.113281 171.84375 C 18.449219 174.46875 17.695312 177.050781 16.945312 179.636719 C 15.652344 184.21875 15.027344 188.929688 14.652344 193.679688 C 14.445312 196.554688 14.359375 199.429688 14.320312 202.304688 C 14.484375 203.515625 14.859375 204.640625 15.527344 205.683594 C 16.527344 207.472656 18.070312 209.183594 19.867188 210.183594 C 20.742188 210.765625 21.699219 211.015625 22.742188 211.015625 C 23.078125 210.890625 23.453125 210.722656 23.785156 210.597656 C 24.410156 209.972656 24.660156 209.183594 24.492188 208.265625 C 24.535156 205.683594 24.617188 203.097656 24.785156 200.515625 C 25.203125 196.347656 25.785156 192.179688 26.953125 188.136719 C 28.207031 183.804688 29.371094 179.425781 30.457031 175.050781 C 30.664062 174.050781 30.582031 173.050781 30.207031 172.09375 C 29.539062 170.132812 28.164062 168.300781 26.621094 166.96875 C 25.703125 166.132812 24.660156 165.550781 23.535156 165.132812 C 23.410156 165.089844 23.328125 165.089844 23.203125 165.050781 C 23.035156 165.175781 22.910156 165.300781 22.785156 165.425781 Z M 22.785156 165.425781 " fill-opacity="1" fill-rule="nonzero"/><path fill="#000000" d="M 352.96875 194.097656 C 352.09375 194.554688 351.261719 195.222656 350.46875 195.804688 C 349.632812 196.429688 348.800781 197.054688 347.925781 197.679688 C 346.089844 199.054688 344.296875 200.472656 342.503906 201.847656 C 340.792969 203.140625 338.917969 204.265625 337.125 205.390625 C 335.207031 206.597656 333.246094 207.808594 331.285156 208.972656 C 329.285156 210.140625 327.28125 211.351562 325.324219 212.640625 C 323.40625 213.890625 321.527344 215.226562 319.652344 216.515625 C 315.898438 219.058594 312.0625 221.476562 308.140625 223.851562 C 300.261719 228.601562 292.335938 233.269531 284.289062 237.769531 C 280.578125 239.855469 276.992188 242.0625 273.28125 244.105469 C 271.195312 245.273438 269.109375 246.4375 267.023438 247.523438 C 264.816406 248.648438 262.648438 249.773438 260.476562 250.898438 C 256.351562 253.066406 252.304688 255.316406 248.261719 257.566406 C 244.546875 259.609375 240.796875 261.648438 237.167969 263.859375 C 233.164062 266.316406 229.203125 268.816406 225.324219 271.402344 C 221.363281 274.070312 217.402344 276.777344 213.441406 279.488281 C 210.394531 281.570312 207.308594 283.652344 204.183594 285.695312 C 202.515625 286.78125 200.847656 287.90625 199.136719 288.945312 C 198.386719 289.40625 197.59375 289.863281 196.800781 290.28125 C 195.59375 290.90625 194.382812 291.488281 193.171875 292.070312 C 192.296875 292.613281 191.628906 293.363281 191.214844 294.324219 C 190.253906 296.15625 189.878906 298.40625 189.960938 300.449219 C 190.046875 302.199219 190.964844 306.617188 193.757812 305.28125 C 195.089844 304.65625 196.382812 303.992188 197.71875 303.324219 C 198.761719 302.78125 199.761719 302.117188 200.761719 301.53125 C 202.554688 300.492188 204.222656 299.28125 205.933594 298.113281 C 209.980469 295.363281 214.023438 292.695312 218.027344 289.945312 C 225.367188 284.902344 232.789062 279.902344 240.503906 275.445312 C 244.632812 273.070312 248.84375 270.734375 253.054688 268.441406 C 256.808594 266.402344 260.519531 264.359375 264.316406 262.398438 C 266.316406 261.359375 268.316406 260.398438 270.277344 259.316406 C 272.40625 258.148438 274.53125 256.941406 276.65625 255.734375 C 278.785156 254.480469 280.953125 253.273438 283.078125 252.023438 C 284.875 250.980469 286.707031 250.023438 288.5 248.980469 C 292.460938 246.730469 296.382812 244.398438 300.300781 242.0625 C 304.222656 239.730469 308.183594 237.480469 312.019531 235.019531 C 315.898438 232.5625 319.734375 230.101562 323.488281 227.476562 C 325.40625 226.144531 327.324219 224.894531 329.324219 223.644531 C 331.203125 222.476562 333.121094 221.394531 334.996094 220.269531 C 338.292969 218.269531 341.585938 216.226562 344.628906 213.851562 C 346.132812 212.683594 347.675781 211.476562 349.21875 210.347656 C 350.636719 209.308594 352.011719 208.097656 353.554688 207.265625 C 354.429688 206.722656 355.097656 205.972656 355.515625 205.015625 C 356.472656 203.183594 356.847656 200.929688 356.765625 198.890625 C 356.722656 197.679688 356.472656 196.515625 355.972656 195.386719 C 355.515625 194.554688 354.761719 193.804688 353.886719 193.804688 C 353.554688 193.847656 353.261719 193.929688 352.96875 194.097656 Z M 352.96875 194.097656 " fill-opacity="1" fill-rule="nonzero"/><path fill="#000000" d="M 350.09375 164.714844 C 349.675781 164.839844 349.21875 165.007812 348.800781 165.132812 C 348.050781 165.589844 347.757812 166.21875 347.839844 167.09375 C 347.757812 168.71875 347.675781 170.34375 347.632812 171.96875 C 347.589844 173.507812 347.632812 175.09375 347.464844 176.636719 C 347.175781 179.84375 346.714844 183.054688 346.296875 186.261719 C 346.007812 188.21875 345.714844 190.222656 345.339844 192.179688 C 344.878906 194.429688 344.589844 196.679688 344.003906 198.890625 C 343.710938 199.722656 343.796875 200.515625 344.296875 201.304688 C 345.171875 202.972656 347.050781 204.222656 348.675781 204.972656 C 349.925781 205.597656 351.21875 205.972656 352.636719 206.140625 C 353.179688 206.140625 353.761719 206.140625 354.304688 206.140625 C 355.222656 206.058594 355.890625 205.640625 356.390625 204.890625 C 356.972656 202.679688 357.265625 200.390625 357.722656 198.179688 C 358.140625 196.054688 358.433594 193.886719 358.765625 191.761719 C 359.140625 189.222656 359.390625 186.679688 359.726562 184.136719 C 360.019531 181.804688 360.226562 179.511719 360.269531 177.175781 C 360.308594 175.050781 360.394531 172.925781 360.476562 170.800781 C 360.269531 169.800781 359.769531 168.925781 358.976562 168.21875 C 357.558594 166.71875 355.554688 165.632812 353.597656 165.050781 C 352.71875 164.757812 351.84375 164.632812 350.96875 164.632812 C 350.71875 164.675781 350.425781 164.675781 350.09375 164.714844 Z M 350.09375 164.714844 " fill-opacity="1" fill-rule="nonzero"/><path fill="#000000" d="M 186.085938 261.691406 C 186 263.902344 185.707031 266.152344 185.582031 268.359375 C 185.417969 270.609375 185.292969 272.859375 185.125 275.070312 C 184.957031 277.234375 184.792969 279.402344 184.667969 281.570312 C 184.5 283.820312 184.457031 286.070312 184.332031 288.363281 C 184.25 289.863281 184.039062 291.320312 184 292.78125 C 183.957031 294.40625 183.957031 296.074219 183.875 297.699219 C 183.957031 298.738281 184.375 299.65625 185.042969 300.449219 C 186.25 302.117188 188.128906 303.449219 190.003906 304.242188 C 191.796875 304.992188 195.800781 305.992188 196.007812 302.949219 C 196.09375 301.824219 196.09375 300.699219 196.09375 299.574219 C 196.132812 298.363281 196.175781 297.199219 196.257812 295.988281 C 196.425781 293.699219 196.550781 291.40625 196.632812 289.113281 C 196.800781 284.652344 197.261719 280.238281 197.550781 275.777344 C 197.636719 274.277344 197.761719 272.820312 197.886719 271.320312 C 198.011719 269.859375 198.175781 268.359375 198.261719 266.859375 C 198.175781 265.816406 197.761719 264.902344 197.09375 264.109375 C 195.882812 262.441406 194.007812 261.109375 192.128906 260.316406 C 191.296875 259.984375 189.921875 259.523438 188.667969 259.523438 C 187.292969 259.648438 186.125 260.109375 186.085938 261.691406 Z M 186.085938 261.691406 " fill-opacity="1" fill-rule="nonzero"/><path fill="#000000" d="M 184.417969 289.363281 C 182.371094 289.488281 180.203125 290.363281 178.535156 291.488281 C 177.492188 292.15625 176.660156 292.988281 175.992188 293.988281 C 175.824219 294.40625 175.660156 294.824219 175.492188 295.238281 C 175.367188 296.074219 175.660156 296.738281 176.410156 297.199219 C 178.160156 298.738281 179.996094 300.199219 182.039062 301.367188 C 183.039062 301.949219 183.957031 302.699219 184.957031 303.28125 C 185.5 303.617188 186.042969 303.90625 186.542969 304.28125 C 187.042969 304.617188 187.503906 305.03125 188.042969 305.28125 C 188.960938 305.742188 189.960938 305.90625 191.003906 305.78125 C 191.628906 305.65625 192.296875 305.574219 192.921875 305.449219 C 194.339844 305.074219 195.675781 304.449219 196.882812 303.65625 C 197.925781 302.992188 198.761719 302.15625 199.429688 301.117188 C 199.84375 300.53125 200.011719 299.949219 199.929688 299.28125 C 200.179688 298.863281 200.347656 298.449219 200.472656 297.949219 C 200.597656 297.113281 200.304688 296.449219 199.554688 295.988281 C 199.136719 295.824219 198.71875 295.699219 198.261719 295.53125 C 197.761719 295.449219 197.261719 295.449219 196.757812 295.449219 C 195.925781 294.90625 195.089844 294.40625 194.257812 293.863281 C 193.546875 293.488281 192.757812 293.324219 191.964844 293.324219 C 190.335938 292.28125 188.792969 291.070312 187.335938 289.78125 C 186.625 289.40625 185.835938 289.238281 185.042969 289.238281 C 184.875 289.320312 184.667969 289.320312 184.417969 289.363281 Z M 184.417969 289.363281 " fill-opacity="1" fill-rule="nonzero"/><path fill="#000000" d="M 17.78125 198.847656 C 17.65625 199.097656 17.570312 199.347656 17.445312 199.597656 C 17.363281 199.765625 17.28125 199.972656 17.238281 200.140625 C 17.113281 200.554688 16.945312 200.972656 16.820312 201.390625 C 16.652344 201.847656 16.488281 202.347656 16.363281 202.804688 C 16.238281 203.140625 16.152344 203.472656 16.027344 203.808594 C 15.945312 204.097656 15.863281 204.390625 15.777344 204.722656 C 15.695312 205.015625 15.652344 205.347656 15.652344 205.640625 C 15.652344 205.722656 15.695312 205.808594 15.695312 205.890625 C 15.738281 205.972656 15.777344 206.058594 15.863281 206.140625 C 16.027344 206.308594 16.238281 206.390625 16.445312 206.308594 C 16.527344 206.265625 16.613281 206.222656 16.695312 206.183594 C 16.78125 206.140625 16.863281 206.140625 16.945312 206.097656 C 17.070312 206.058594 17.238281 206.015625 17.363281 206.015625 C 17.445312 206.015625 17.570312 205.972656 17.65625 205.972656 C 17.863281 205.933594 18.03125 205.933594 18.238281 205.933594 C 18.238281 205.933594 18.238281 205.933594 18.28125 205.933594 C 18.28125 205.933594 18.324219 205.933594 18.324219 205.933594 C 18.324219 205.933594 18.28125 205.933594 18.28125 205.933594 C 18.53125 205.933594 18.738281 205.972656 18.988281 205.972656 C 19.238281 205.972656 19.488281 205.972656 19.738281 205.972656 C 19.992188 205.933594 20.28125 205.890625 20.53125 205.808594 C 20.574219 205.808594 20.617188 205.765625 20.617188 205.765625 C 20.65625 205.722656 20.617188 205.640625 20.574219 205.597656 C 20.53125 205.558594 20.492188 205.515625 20.40625 205.472656 C 20.324219 205.433594 20.242188 205.390625 20.15625 205.433594 C 19.949219 205.472656 19.738281 205.515625 19.53125 205.558594 C 19.324219 205.597656 19.113281 205.597656 18.863281 205.597656 C 18.863281 205.597656 18.90625 205.597656 18.90625 205.597656 C 18.90625 205.597656 18.863281 205.597656 18.863281 205.597656 C 18.863281 205.597656 18.824219 205.597656 18.824219 205.597656 C 18.824219 205.597656 18.863281 205.597656 18.863281 205.597656 C 18.613281 205.597656 18.40625 205.558594 18.15625 205.558594 C 17.90625 205.558594 17.65625 205.558594 17.40625 205.558594 C 17.28125 205.558594 17.15625 205.597656 17.070312 205.597656 C 16.90625 205.640625 16.738281 205.683594 16.570312 205.722656 C 16.488281 205.765625 16.402344 205.765625 16.277344 205.808594 C 16.277344 205.808594 16.238281 205.808594 16.238281 205.808594 C 16.238281 205.597656 16.238281 205.390625 16.277344 205.140625 C 16.402344 204.558594 16.570312 204.015625 16.738281 203.472656 C 16.820312 203.265625 16.90625 203.015625 16.945312 202.804688 C 17.070312 202.390625 17.195312 202.015625 17.320312 201.597656 C 17.445312 201.179688 17.613281 200.765625 17.738281 200.390625 C 17.820312 200.222656 17.863281 200.015625 17.945312 199.847656 C 18.03125 199.597656 18.15625 199.390625 18.238281 199.140625 C 18.28125 199.015625 18.113281 198.890625 18.03125 198.847656 C 17.988281 198.804688 17.90625 198.804688 17.863281 198.804688 C 17.863281 198.804688 17.820312 198.804688 17.820312 198.804688 C 17.863281 198.804688 17.820312 198.804688 17.78125 198.847656 Z M 16.945312 206.140625 Z M 18.28125 205.972656 Z M 18.90625 205.597656 Z M 18.90625 205.597656 " fill-opacity="1" fill-rule="nonzero"/><path fill="#000000" d="M 15.488281 195.722656 C 15.277344 196.222656 15.027344 196.722656 14.902344 197.265625 C 14.820312 197.722656 14.734375 198.179688 14.652344 198.640625 C 14.527344 199.429688 14.445312 200.265625 14.359375 201.097656 C 14.277344 201.847656 14.234375 202.597656 14.195312 203.347656 C 14.195312 203.933594 14.152344 204.515625 14.195312 205.140625 C 14.195312 205.683594 14.277344 206.222656 14.402344 206.722656 C 14.445312 206.933594 14.527344 207.140625 14.652344 207.347656 C 14.734375 207.515625 14.859375 207.640625 14.945312 207.765625 C 15.027344 207.847656 15.070312 207.933594 15.152344 208.015625 C 15.320312 208.222656 15.570312 208.390625 15.820312 208.515625 C 16.152344 208.683594 16.527344 208.847656 16.90625 208.765625 C 17.070312 208.765625 17.238281 208.683594 17.320312 208.515625 C 17.445312 208.265625 17.238281 207.972656 17.070312 207.765625 C 17.03125 207.722656 16.988281 207.683594 16.945312 207.640625 C 16.90625 207.597656 16.90625 207.558594 16.863281 207.515625 C 16.652344 206.847656 16.652344 206.140625 16.652344 205.433594 C 16.652344 205.058594 16.652344 204.640625 16.695312 204.265625 C 16.695312 203.640625 16.78125 203.054688 16.820312 202.429688 C 16.90625 201.304688 17.03125 200.179688 17.195312 199.097656 C 17.28125 198.722656 17.363281 198.390625 17.445312 198.015625 C 17.570312 197.679688 17.738281 197.304688 17.863281 196.972656 C 18.113281 196.429688 17.363281 195.929688 16.988281 195.722656 C 16.738281 195.597656 16.488281 195.511719 16.238281 195.472656 C 16.195312 195.472656 16.113281 195.472656 16.027344 195.472656 C 15.820312 195.472656 15.570312 195.511719 15.488281 195.722656 Z M 16.988281 207.722656 C 16.988281 207.722656 17.03125 207.765625 17.03125 207.765625 C 17.03125 207.765625 17.03125 207.765625 16.988281 207.722656 Z M 16.988281 207.722656 " fill-opacity="1" fill-rule="nonzero"/><path fill="#000000" d="M 19.613281 200.972656 C 19.449219 200.972656 19.28125 201.054688 19.199219 201.222656 C 19.074219 201.472656 19.28125 201.765625 19.449219 201.972656 C 19.90625 202.472656 20.367188 202.929688 20.824219 203.433594 C 20.992188 203.597656 21.199219 203.765625 21.40625 203.972656 C 21.617188 204.183594 21.867188 204.390625 22.074219 204.597656 C 23.285156 205.683594 24.578125 206.683594 25.996094 207.472656 C 26.578125 207.808594 27.164062 208.140625 27.746094 208.433594 C 27.996094 208.558594 28.246094 208.640625 28.496094 208.683594 C 28.746094 208.722656 29.121094 208.722656 29.246094 208.472656 C 29.332031 208.308594 29.289062 208.140625 29.207031 208.015625 C 29.039062 207.683594 28.664062 207.433594 28.371094 207.265625 C 27.578125 206.847656 26.789062 206.433594 26.035156 205.972656 C 25.203125 205.433594 24.453125 204.808594 23.703125 204.183594 C 23.367188 203.890625 23.035156 203.597656 22.699219 203.304688 C 22.492188 203.140625 22.324219 202.929688 22.160156 202.722656 C 21.867188 202.429688 21.617188 202.140625 21.324219 201.847656 C 21.15625 201.640625 20.90625 201.472656 20.65625 201.347656 C 20.367188 201.222656 20.03125 201.054688 19.699219 201.054688 C 19.738281 200.929688 19.65625 200.972656 19.613281 200.972656 Z M 23.867188 204.183594 C 23.910156 204.222656 23.953125 204.265625 23.992188 204.308594 C 23.953125 204.265625 23.910156 204.222656 23.867188 204.183594 Z M 23.867188 204.183594 " fill-opacity="1" fill-rule="nonzero"/><path fill="#000000" d="M 150.472656 97.953125 C 148.636719 98.328125 146.886719 99.746094 145.675781 101.082031 C 144.71875 102.082031 143.964844 103.246094 143.425781 104.496094 C 143.257812 105.039062 143.132812 105.582031 142.964844 106.082031 C 142.757812 106.957031 142.964844 107.75 143.550781 108.414062 C 148.429688 111.125 153.308594 113.789062 158.226562 116.417969 C 161.898438 118.375 165.527344 120.375 169.277344 122.167969 C 177.535156 126.125 185.792969 130.085938 193.882812 134.417969 C 202.097656 138.796875 210.394531 143.003906 218.527344 147.589844 C 226.742188 152.214844 234.957031 156.882812 243.214844 161.464844 C 250.96875 165.800781 258.433594 170.550781 266.441406 174.425781 C 272.738281 177.46875 279.117188 180.34375 285.5 183.136719 C 289.460938 185.011719 293.339844 186.96875 297.300781 188.847656 C 299.21875 189.761719 301.136719 190.679688 303.054688 191.597656 C 303.511719 191.804688 303.972656 192.054688 304.429688 192.261719 C 304.765625 192.554688 305.097656 192.722656 305.515625 192.761719 C 305.558594 192.761719 305.597656 192.804688 305.640625 192.804688 C 305.765625 192.886719 305.933594 192.929688 306.058594 193.011719 C 306.347656 193.304688 306.722656 193.472656 307.140625 193.511719 C 308.933594 194.347656 310.726562 195.261719 312.605469 195.972656 C 313.648438 196.054688 314.605469 195.804688 315.523438 195.304688 C 317.359375 194.386719 318.984375 192.761719 320.109375 191.054688 C 320.820312 190.054688 321.277344 188.929688 321.488281 187.71875 C 321.488281 187.261719 321.445312 186.804688 321.445312 186.34375 C 321.234375 185.511719 320.695312 185.011719 319.859375 184.886719 C 319.066406 184.59375 318.316406 184.261719 317.523438 183.929688 C 316.898438 183.636719 316.273438 183.34375 315.691406 183.054688 C 315.605469 183.011719 315.523438 182.96875 315.441406 182.929688 C 315.316406 182.84375 315.191406 182.71875 315.023438 182.679688 C 314.773438 182.511719 314.480469 182.429688 314.1875 182.386719 C 313.9375 182.179688 313.6875 182.09375 313.355469 182.011719 C 309.308594 180.09375 305.265625 178.136719 301.261719 176.136719 C 297.050781 174.011719 292.753906 172.132812 288.417969 170.21875 C 285.707031 169.007812 282.953125 167.757812 280.246094 166.507812 C 276.28125 164.589844 272.28125 162.675781 268.441406 160.550781 C 264.398438 158.296875 260.394531 155.921875 256.351562 153.632812 C 252.472656 151.382812 248.550781 149.214844 244.632812 147.003906 C 240.585938 144.714844 236.542969 142.421875 232.496094 140.128906 C 228.160156 137.710938 223.824219 135.292969 219.445312 132.917969 C 215.859375 131.003906 212.230469 129.167969 208.644531 127.25 C 204.097656 124.835938 199.554688 122.417969 194.964844 120.082031 C 191.339844 118.207031 187.710938 116.457031 184.039062 114.707031 C 181.664062 113.582031 179.328125 112.414062 176.953125 111.289062 C 174.699219 110.207031 172.488281 108.957031 170.28125 107.789062 C 166.402344 105.746094 162.523438 103.621094 158.6875 101.539062 C 156.726562 100.457031 154.726562 99.371094 152.765625 98.289062 C 152.265625 97.914062 151.765625 97.746094 151.222656 97.746094 C 151.015625 97.789062 150.722656 97.828125 150.472656 97.953125 Z M 312.644531 181.679688 C 312.894531 181.804688 313.105469 181.886719 313.355469 182.011719 C 313.3125 182.011719 313.269531 181.96875 313.230469 181.96875 C 313.019531 181.84375 312.8125 181.761719 312.644531 181.679688 Z M 312.644531 181.679688 " fill-opacity="1" fill-rule="nonzero"/><path fill="#000000" d="M 89.046875 125.710938 C 87.210938 126.085938 85.460938 127.5 84.25 128.835938 C 83.292969 129.835938 82.542969 131.003906 82 132.253906 C 81.539062 133.417969 81.082031 135.167969 82.125 136.210938 C 84.417969 138.460938 86.753906 140.710938 89.378906 142.628906 C 92.050781 144.546875 94.925781 146.128906 97.804688 147.628906 C 100.140625 148.839844 102.472656 150.003906 104.808594 151.171875 C 106.894531 152.214844 109.019531 153.171875 111.148438 154.171875 C 113.273438 155.171875 115.402344 156.171875 117.527344 157.171875 C 119.613281 158.171875 121.65625 159.300781 123.699219 160.382812 C 125.742188 161.464844 127.785156 162.550781 129.789062 163.632812 C 133.667969 165.714844 137.542969 167.757812 141.421875 169.800781 C 149.347656 173.886719 157.1875 178.21875 165.152344 182.304688 C 173.449219 186.511719 181.621094 190.929688 189.878906 195.222656 C 193.925781 197.304688 197.96875 199.390625 202.015625 201.515625 C 206.058594 203.640625 210.105469 205.847656 214.191406 207.933594 C 218.527344 210.140625 222.90625 212.308594 227.328125 214.351562 C 231.246094 216.183594 235.125 218.058594 239.003906 220.019531 C 242.796875 221.933594 246.550781 223.894531 250.34375 225.8125 C 252.097656 226.6875 253.847656 227.476562 255.597656 228.4375 C 257.433594 229.394531 259.183594 230.5625 260.9375 231.601562 C 261.644531 232.144531 262.4375 232.269531 263.3125 232.019531 C 265.148438 231.644531 266.898438 230.226562 268.109375 228.894531 C 269.070312 227.894531 269.820312 226.726562 270.363281 225.476562 C 270.527344 224.933594 270.652344 224.394531 270.820312 223.894531 C 271.027344 223.019531 270.820312 222.226562 270.234375 221.558594 C 268.277344 220.394531 266.316406 219.183594 264.273438 218.101562 C 262.3125 217.058594 260.269531 216.140625 258.269531 215.140625 C 254.347656 213.183594 250.46875 211.101562 246.507812 209.183594 C 238.417969 205.183594 230.160156 201.554688 222.195312 197.304688 C 214.066406 192.972656 205.890625 188.804688 197.761719 184.511719 C 193.714844 182.386719 189.710938 180.261719 185.667969 178.136719 C 181.582031 176.011719 177.492188 173.925781 173.449219 171.800781 C 164.859375 167.382812 156.351562 162.714844 147.761719 158.296875 C 139.839844 154.214844 132.164062 149.714844 124.117188 145.921875 C 120.53125 144.214844 116.902344 142.585938 113.359375 140.796875 C 110.773438 139.503906 108.230469 138.210938 105.683594 136.878906 C 103.058594 135.460938 100.472656 133.917969 98.054688 132.128906 C 95.675781 130.378906 93.550781 128.25 91.421875 126.167969 C 90.921875 125.792969 90.421875 125.625 89.878906 125.625 C 89.628906 125.585938 89.339844 125.625 89.046875 125.710938 Z M 89.046875 125.710938 " fill-opacity="1" fill-rule="nonzero"/><path fill="#e32323" d="M 210.644531 150.214844 C 208.394531 150.378906 206.140625 150.671875 203.890625 150.964844 C 199.554688 151.546875 195.175781 151.964844 190.839844 152.421875 C 187.585938 152.757812 184.332031 153.171875 181.082031 153.507812 C 179.328125 153.714844 177.617188 153.882812 175.910156 153.964844 C 174.074219 154.089844 172.238281 154.132812 170.445312 154.214844 C 169.070312 154.257812 167.820312 154.714844 166.820312 155.714844 C 165.859375 156.671875 165.316406 157.964844 165.316406 159.339844 C 165.316406 162.050781 167.652344 164.550781 170.445312 164.464844 C 172.988281 164.382812 175.574219 164.257812 178.121094 164.089844 C 179.328125 164.007812 180.578125 163.800781 181.789062 163.675781 C 182.789062 163.550781 183.832031 163.425781 184.832031 163.339844 C 189.210938 162.839844 193.589844 162.425781 197.925781 161.925781 C 199.554688 161.757812 201.136719 161.589844 202.765625 161.382812 C 204.515625 161.132812 206.226562 160.925781 207.976562 160.714844 C 209.476562 160.550781 211.019531 160.425781 212.523438 160.339844 C 214.191406 160.257812 215.898438 160.132812 217.566406 160.175781 C 220.363281 160.214844 222.699219 157.796875 222.699219 155.046875 C 222.699219 152.214844 220.363281 150.003906 217.566406 149.921875 C 217.277344 149.921875 217.027344 149.921875 216.734375 149.921875 C 214.691406 149.921875 212.648438 150.046875 210.644531 150.214844 Z M 210.644531 150.214844 " fill-opacity="1" fill-rule="nonzero"/><path fill="#e32323" d="M 190.128906 144.339844 C 190.378906 149.046875 190.335938 153.757812 190.335938 158.464844 C 190.335938 162.925781 190.335938 167.425781 190.335938 171.882812 C 190.335938 172.507812 190.335938 173.132812 190.378906 173.71875 C 190.460938 175.09375 190.878906 176.34375 191.878906 177.34375 C 192.839844 178.300781 194.132812 178.84375 195.507812 178.84375 C 198.175781 178.84375 200.761719 176.511719 200.636719 173.71875 C 200.511719 171.382812 200.597656 169.050781 200.597656 166.757812 C 200.597656 164.382812 200.597656 162.007812 200.597656 159.589844 C 200.597656 155.257812 200.679688 150.878906 200.472656 146.546875 C 200.429688 145.796875 200.429688 145.089844 200.386719 144.339844 C 200.304688 142.960938 199.886719 141.710938 198.886719 140.710938 C 197.925781 139.753906 196.632812 139.210938 195.257812 139.210938 C 192.546875 139.210938 189.960938 141.546875 190.128906 144.339844 Z M 190.128906 144.339844 " fill-opacity="1" fill-rule="nonzero"/><path fill="#e32323" d="M 197.96875 94.996094 C 195.800781 95.121094 193.671875 95.371094 191.546875 95.578125 C 189.378906 95.789062 187.210938 95.953125 185.082031 96.164062 C 183.789062 96.289062 182.496094 96.371094 181.164062 96.453125 C 179.789062 96.496094 178.453125 96.496094 177.117188 96.414062 C 174.324219 96.289062 171.988281 98.828125 171.988281 101.539062 C 171.988281 102.871094 172.53125 104.207031 173.492188 105.164062 C 174.492188 106.164062 175.742188 106.625 177.117188 106.664062 C 178.328125 106.707031 179.578125 106.75 180.789062 106.707031 C 181.996094 106.664062 183.164062 106.582031 184.332031 106.5 C 186.460938 106.332031 188.628906 106.121094 190.753906 105.914062 C 195.300781 105.457031 199.886719 105.039062 204.472656 104.957031 C 206.933594 104.914062 209.394531 104.871094 211.855469 104.871094 C 214.648438 104.871094 216.984375 102.539062 216.984375 99.746094 C 216.984375 96.953125 214.648438 94.621094 211.855469 94.621094 C 207.226562 94.621094 202.597656 94.746094 197.96875 94.996094 Z M 197.96875 94.996094 " fill-opacity="1" fill-rule="nonzero"/><path fill="#e32323" d="M 191.671875 85.203125 C 190.378906 85.535156 189.296875 86.410156 188.628906 87.535156 C 187.878906 88.785156 187.835938 90.078125 188.128906 91.453125 C 188.417969 92.871094 188.628906 94.328125 188.835938 95.789062 C 189.046875 97.703125 189.253906 99.582031 189.503906 101.496094 C 189.753906 103.664062 190.128906 105.832031 190.460938 107.957031 C 190.714844 109.75 190.921875 111.5 191.089844 113.289062 C 191.128906 113.75 191.214844 114.207031 191.253906 114.667969 C 191.503906 115.542969 191.921875 116.292969 192.589844 116.917969 C 193.546875 117.875 194.839844 118.417969 196.21875 118.417969 C 197.550781 118.417969 198.886719 117.875 199.84375 116.917969 C 200.722656 116.042969 201.472656 114.582031 201.347656 113.289062 C 200.929688 109.164062 200.304688 105.039062 199.679688 100.914062 C 199.179688 96.828125 198.804688 92.746094 198.011719 88.746094 C 197.761719 87.496094 196.757812 86.328125 195.675781 85.703125 C 194.882812 85.246094 194.007812 84.996094 193.089844 84.996094 C 192.546875 85.035156 192.128906 85.078125 191.671875 85.203125 Z M 191.671875 85.203125 " fill-opacity="1" fill-rule="nonzero"/><path fill="#e32323" d="M 222.28125 221.144531 C 220.027344 221.394531 217.777344 221.558594 215.484375 221.683594 C 213.316406 221.808594 211.144531 221.808594 208.976562 221.851562 C 204.097656 221.894531 199.261719 222.058594 194.382812 222.269531 C 189.960938 222.476562 185.5 222.644531 181.082031 222.769531 C 178.746094 222.808594 176.453125 222.851562 174.117188 222.851562 C 173.824219 222.851562 173.53125 222.851562 173.242188 222.851562 C 172.574219 222.851562 171.90625 222.851562 171.238281 222.808594 C 169.777344 222.726562 168.363281 222.644531 166.902344 222.558594 C 166.066406 222.519531 165.191406 222.433594 164.359375 222.351562 C 163.066406 222.226562 161.605469 222.976562 160.730469 223.851562 C 159.769531 224.808594 159.230469 226.101562 159.230469 227.476562 C 159.230469 228.8125 159.769531 230.144531 160.730469 231.101562 C 161.0625 231.351562 161.4375 231.644531 161.773438 231.894531 C 162.566406 232.351562 163.441406 232.601562 164.359375 232.601562 C 165.941406 232.769531 167.570312 232.851562 169.152344 232.9375 C 170.070312 232.976562 170.988281 233.0625 171.90625 233.0625 C 174.15625 233.0625 176.410156 233.101562 178.660156 233.0625 C 183.289062 232.9375 187.917969 232.8125 192.507812 232.601562 C 197.136719 232.394531 201.804688 232.1875 206.433594 232.101562 C 208.9375 232.0625 211.398438 232.019531 213.898438 231.976562 C 216.023438 231.9375 218.152344 231.726562 220.238281 231.519531 C 220.90625 231.476562 221.570312 231.394531 222.238281 231.3125 C 222.699219 231.269531 223.15625 231.1875 223.613281 231.144531 C 224.492188 230.894531 225.242188 230.476562 225.867188 229.851562 C 226.824219 228.894531 227.367188 227.601562 227.367188 226.226562 C 227.367188 224.894531 226.824219 223.558594 225.867188 222.601562 C 225.074219 221.808594 223.738281 221.101562 222.53125 221.101562 C 222.488281 221.101562 222.363281 221.101562 222.28125 221.144531 Z M 222.28125 221.144531 " fill-opacity="1" fill-rule="nonzero"/><path fill="#e32323" d="M 188.710938 206.597656 C 187.835938 207.472656 187.125 208.933594 187.210938 210.222656 C 187.628906 215.351562 188.003906 220.519531 188.460938 225.644531 C 188.835938 230.101562 189.128906 234.605469 189.546875 239.0625 C 189.671875 240.394531 189.753906 241.730469 189.835938 243.0625 C 189.921875 244.5625 190.003906 246.105469 189.921875 247.605469 C 189.796875 250.398438 192.339844 252.730469 195.050781 252.730469 C 196.382812 252.730469 197.71875 252.191406 198.679688 251.230469 C 199.679688 250.230469 200.136719 248.980469 200.179688 247.605469 C 200.261719 245.398438 200.136719 243.105469 199.929688 240.898438 C 199.761719 238.644531 199.554688 236.4375 199.386719 234.1875 C 199.054688 229.6875 198.636719 225.183594 198.300781 220.683594 C 198.050781 217.183594 197.761719 213.683594 197.46875 210.222656 C 197.425781 209.765625 197.34375 209.308594 197.300781 208.847656 C 197.050781 207.972656 196.632812 207.222656 195.96875 206.597656 C 195.007812 205.640625 193.714844 205.097656 192.339844 205.097656 C 190.964844 205.097656 189.671875 205.640625 188.710938 206.597656 Z M 188.710938 206.597656 " fill-opacity="1" fill-rule="nonzero"/><path fill="#1f88e4" d="M 249.886719 175.550781 C 248.886719 175.761719 247.882812 176.050781 246.882812 176.34375 C 246.132812 176.59375 245.425781 176.84375 244.714844 177.21875 C 242.589844 178.300781 240.878906 179.96875 239.253906 181.71875 C 239.003906 182.011719 238.792969 182.304688 238.542969 182.59375 C 237.960938 183.429688 237.417969 184.136719 236.960938 185.011719 C 236.542969 185.804688 236.082031 186.71875 235.707031 187.59375 C 235.332031 188.511719 235.125 189.511719 234.875 190.472656 C 234.582031 191.597656 234.582031 192.804688 234.664062 193.929688 C 234.707031 194.972656 235.039062 196.015625 235.375 197.015625 C 235.917969 198.722656 237.167969 200.097656 238.375 201.347656 C 240.546875 203.640625 243.339844 205.308594 246.089844 206.722656 C 249.175781 208.347656 252.511719 209.265625 255.933594 209.847656 C 257.476562 210.097656 258.976562 210.183594 260.5625 210.140625 C 262.480469 210.097656 264.398438 209.515625 266.109375 208.765625 C 267.152344 208.308594 268.109375 207.597656 269.070312 206.972656 C 269.652344 206.597656 270.195312 206.140625 270.738281 205.640625 C 272.738281 203.765625 274.363281 201.765625 275.78125 199.429688 C 276.449219 198.347656 277.035156 197.054688 277.410156 195.804688 C 277.660156 194.972656 277.949219 194.097656 278.074219 193.222656 C 278.199219 192.429688 278.242188 191.429688 278.199219 190.597656 C 278.160156 190.261719 278.117188 189.929688 278.035156 189.636719 C 277.824219 188.804688 277.660156 188.09375 277.324219 187.304688 C 276.992188 186.554688 276.53125 185.929688 275.992188 185.34375 C 274.78125 183.929688 273.445312 182.679688 271.902344 181.554688 C 271.027344 180.925781 270.109375 180.34375 269.234375 179.761719 C 268.109375 179.050781 266.941406 178.34375 265.773438 177.675781 C 265.523438 177.550781 265.316406 177.425781 265.066406 177.300781 C 264.980469 177.21875 264.855469 177.09375 264.730469 177.011719 C 264.480469 176.925781 264.191406 176.84375 263.9375 176.800781 C 263.8125 176.761719 263.648438 176.675781 263.523438 176.636719 C 262.898438 176.386719 262.230469 176.261719 261.5625 176.136719 C 260.894531 175.96875 260.226562 175.800781 259.5625 175.675781 C 257.894531 175.34375 256.226562 175.175781 254.515625 175.136719 C 254.265625 175.136719 254.015625 175.136719 253.765625 175.136719 C 252.554688 175.175781 251.222656 175.300781 249.886719 175.550781 Z M 253.054688 187.804688 C 253.390625 188.054688 253.804688 188.136719 254.304688 188.136719 C 254.808594 188.21875 255.308594 188.304688 255.765625 188.386719 C 256.101562 188.472656 256.476562 188.597656 256.808594 188.679688 C 258.433594 189.261719 259.976562 190.222656 261.4375 191.136719 C 263.730469 192.554688 265.984375 194.011719 267.859375 195.929688 C 268.109375 196.265625 268.359375 196.640625 268.566406 196.972656 C 268.109375 197.222656 267.652344 197.390625 267.152344 197.597656 C 264.691406 198.097656 262.019531 197.804688 259.5625 197.347656 C 256.933594 196.679688 254.433594 195.679688 252.054688 194.386719 C 249.636719 193.097656 247.300781 191.554688 245.382812 189.597656 C 245.007812 189.136719 244.714844 188.679688 244.421875 188.179688 C 244.507812 188.136719 244.589844 188.136719 244.632812 188.09375 C 247.425781 187.386719 250.304688 187.386719 253.054688 187.804688 Z M 253.054688 187.804688 " fill-opacity="1" fill-rule="nonzero"/><path fill="#1f88e4" d="M 301.679688 142.546875 C 299.886719 142.585938 298.050781 143.046875 296.382812 143.671875 C 295.296875 144.046875 294.296875 144.753906 293.378906 145.378906 C 292.296875 146.128906 291.335938 147.171875 290.460938 148.128906 C 289.585938 149.046875 288.875 150.171875 288.167969 151.214844 C 287.457031 152.296875 286.875 153.464844 286.417969 154.671875 C 286.082031 155.507812 285.914062 156.382812 285.664062 157.257812 C 285.457031 158.007812 285.5 158.925781 285.457031 159.632812 C 285.375 160.800781 285.625 161.839844 285.957031 162.964844 C 286.332031 164.339844 287 165.507812 287.875 166.675781 C 288.960938 168.09375 290.253906 169.425781 291.671875 170.550781 C 292.796875 171.46875 294.046875 172.300781 295.296875 173.007812 C 296.964844 173.96875 298.71875 174.550781 300.59375 174.925781 C 303.679688 175.550781 306.847656 175.300781 309.894531 174.636719 C 313.523438 173.84375 317.066406 172.59375 319.820312 170.050781 C 323.988281 166.21875 327.699219 159.632812 324.570312 154.089844 C 323.988281 153.089844 323.113281 152.171875 322.277344 151.339844 C 321.527344 150.589844 320.652344 149.921875 319.734375 149.296875 C 317.859375 147.964844 315.816406 146.753906 313.730469 145.753906 C 313.144531 145.464844 312.519531 145.214844 311.894531 145.003906 C 311.769531 144.878906 311.644531 144.796875 311.519531 144.671875 C 310.851562 144.378906 310.183594 144.089844 309.519531 143.839844 C 308.558594 143.460938 307.558594 143.253906 306.558594 143.003906 C 305.140625 142.710938 303.722656 142.546875 302.304688 142.546875 C 302.054688 142.546875 301.886719 142.546875 301.679688 142.546875 Z M 299.84375 155.046875 C 300.011719 155.257812 300.21875 155.464844 300.46875 155.671875 C 302.09375 156.046875 303.679688 156.464844 305.265625 157.046875 C 307.226562 157.757812 309.058594 158.757812 310.8125 159.882812 C 312.019531 160.632812 313.230469 161.464844 314.3125 162.382812 C 311.519531 163.007812 308.644531 163.214844 305.808594 162.714844 C 304.097656 162.214844 302.472656 161.425781 300.96875 160.464844 C 299.425781 159.464844 297.96875 158.296875 296.675781 157.007812 C 296.214844 156.421875 295.757812 155.796875 295.382812 155.171875 C 296.839844 154.839844 298.34375 154.839844 299.84375 155.046875 Z M 299.84375 155.046875 " fill-opacity="1" fill-rule="nonzero"/><path fill="#1f88e4" d="M 247.132812 111.957031 C 246.425781 112.039062 245.675781 112.164062 245.007812 112.375 C 243.921875 112.664062 242.878906 112.957031 241.878906 113.457031 C 239.628906 114.582031 237.792969 116.292969 236.207031 118.207031 C 235.375 119.207031 234.582031 120.292969 234 121.417969 C 233.539062 122.25 233.121094 123.167969 232.746094 124.085938 C 232.414062 124.917969 232.246094 125.835938 231.996094 126.667969 C 231.914062 127.042969 231.871094 127.417969 231.828125 127.792969 C 231.789062 128.625 231.703125 129.378906 231.746094 130.210938 C 231.789062 131.378906 232.207031 132.542969 232.621094 133.628906 C 233.246094 135.253906 234.375 136.585938 235.542969 137.835938 C 236.542969 138.921875 237.667969 139.921875 238.878906 140.796875 C 240.046875 141.671875 241.335938 142.378906 242.671875 142.921875 C 244.507812 143.628906 246.507812 144.003906 248.425781 144.128906 C 251.929688 144.339844 255.558594 143.671875 258.769531 142.335938 C 259.851562 141.878906 260.8125 141.210938 261.8125 140.546875 C 262.4375 140.128906 263.023438 139.710938 263.5625 139.210938 C 264.480469 138.421875 265.355469 137.503906 266.148438 136.546875 C 267.066406 135.460938 267.941406 134.253906 268.566406 133.003906 C 269.359375 131.335938 270.195312 129.667969 270.359375 127.792969 C 270.445312 126.917969 270.527344 126.25 270.402344 125.460938 C 270.320312 124.792969 270.109375 124.125 269.902344 123.460938 C 269.445312 121.792969 268.109375 120.375 266.859375 119.25 C 265.773438 118.292969 264.523438 117.542969 263.3125 116.75 C 262.648438 116.332031 261.9375 115.917969 261.269531 115.5 C 260.5625 115.082031 259.851562 114.707031 259.144531 114.332031 C 258.476562 113.957031 257.808594 113.664062 257.101562 113.414062 C 256.265625 113.125 255.347656 112.832031 254.429688 112.707031 C 253.597656 112.414062 252.722656 112.25 251.847656 112.082031 C 250.929688 111.875 250.011719 111.789062 249.050781 111.789062 C 248.425781 111.875 247.757812 111.914062 247.132812 111.957031 Z M 246.800781 124.417969 C 246.882812 124.417969 246.925781 124.460938 247.007812 124.460938 C 247.34375 124.792969 247.800781 125 248.425781 125 C 248.886719 125.210938 249.300781 125.417969 249.761719 125.667969 C 250.304688 125.917969 250.84375 125.960938 251.429688 125.835938 C 252.597656 126.375 253.765625 127.042969 254.890625 127.710938 C 256.640625 128.753906 258.433594 129.753906 259.9375 131.085938 C 259.8125 131.128906 259.6875 131.167969 259.519531 131.210938 C 256.808594 131.835938 253.890625 132.003906 251.136719 131.542969 C 247.96875 130.667969 245.175781 128.753906 242.878906 126.375 C 242.378906 125.75 241.921875 125.085938 241.546875 124.417969 C 243.257812 124.167969 245.050781 124.125 246.800781 124.417969 Z M 246.800781 124.417969 " fill-opacity="1" fill-rule="nonzero"/><path fill="#1f88e4" d="M 122.074219 174.136719 C 120.363281 174.59375 118.695312 175.175781 117.152344 176.09375 C 114.941406 177.425781 113.066406 179.175781 111.523438 181.21875 C 109.5625 183.761719 108.144531 186.59375 107.519531 189.761719 C 107.3125 190.847656 107.269531 191.972656 107.351562 193.097656 C 107.394531 194.261719 107.8125 195.472656 108.1875 196.554688 C 108.644531 197.929688 109.523438 199.140625 110.480469 200.222656 C 111.730469 201.679688 113.148438 202.929688 114.734375 204.015625 C 116.320312 205.140625 118.070312 206.058594 119.738281 207.058594 C 120.65625 207.597656 121.613281 208.058594 122.574219 208.472656 C 124.242188 209.183594 126.078125 209.558594 127.871094 209.808594 C 132.289062 210.433594 136.878906 209.308594 140.714844 207.058594 C 141.882812 206.390625 142.964844 205.597656 144.007812 204.765625 C 145.132812 203.890625 146.09375 202.765625 147.050781 201.722656 C 148.09375 200.554688 148.929688 199.222656 149.679688 197.890625 C 150.222656 196.929688 150.636719 195.929688 150.972656 194.886719 C 151.472656 193.304688 151.640625 192.054688 151.640625 190.429688 C 151.640625 189.179688 151.222656 187.886719 150.679688 186.761719 C 150.304688 185.929688 149.679688 185.179688 149.054688 184.46875 C 147.761719 182.96875 146.21875 181.636719 144.550781 180.550781 C 143.925781 180.136719 143.257812 179.71875 142.632812 179.300781 C 141.589844 178.550781 140.546875 177.886719 139.503906 177.21875 C 137.167969 175.800781 134.625 174.800781 131.957031 174.21875 C 130.207031 173.84375 128.414062 173.59375 126.660156 173.59375 C 125.117188 173.550781 123.574219 173.71875 122.074219 174.136719 Z M 125.535156 186.304688 C 128.078125 186.886719 130.582031 187.84375 132.832031 189.222656 C 133.167969 189.429688 133.5 189.636719 133.792969 189.847656 C 133.917969 190.011719 134.082031 190.136719 134.292969 190.261719 C 134.792969 190.597656 135.335938 190.886719 135.835938 191.222656 C 135.917969 191.261719 136 191.347656 136.085938 191.386719 C 136.125 191.386719 136.167969 191.429688 136.167969 191.429688 C 137.878906 192.472656 139.546875 193.597656 140.964844 195.011719 C 141.214844 195.304688 141.421875 195.554688 141.632812 195.847656 C 140.839844 196.265625 139.964844 196.640625 139.128906 196.972656 C 136.710938 197.597656 134.207031 197.640625 131.75 197.304688 C 130.207031 196.929688 128.746094 196.347656 127.328125 195.636719 C 126.578125 195.261719 125.867188 194.804688 125.117188 194.386719 C 122.78125 193.054688 120.449219 191.636719 118.488281 189.761719 C 117.777344 188.972656 117.195312 188.09375 116.734375 187.136719 C 117.070312 186.96875 117.445312 186.84375 117.777344 186.679688 C 120.320312 185.96875 122.949219 185.886719 125.535156 186.304688 Z M 125.535156 186.304688 " fill-opacity="1" fill-rule="nonzero"/><path fill="#e32323" d="M 97.09375 155.839844 C 95.925781 156.007812 94.757812 156.046875 93.59375 156.171875 C 92.507812 156.296875 91.382812 156.507812 90.296875 156.671875 C 88.046875 157.007812 85.753906 157.257812 83.457031 157.546875 C 78.914062 158.046875 74.367188 158.546875 69.824219 159.132812 C 66.988281 159.507812 64.152344 159.882812 61.316406 160.132812 C 60.773438 160.089844 60.191406 160.007812 59.648438 160.007812 C 58.773438 159.925781 57.894531 160.089844 57.0625 160.464844 C 56.226562 160.839844 55.5625 161.382812 55.0625 162.132812 C 55.0625 162.175781 55.019531 162.175781 55.019531 162.214844 C 54.476562 162.964844 54.144531 163.839844 54.058594 164.757812 C 53.976562 165.632812 54.144531 166.507812 54.519531 167.34375 C 54.894531 168.175781 55.4375 168.84375 56.1875 169.34375 C 56.9375 169.882812 57.8125 170.21875 58.730469 170.300781 C 60.148438 170.59375 61.609375 170.382812 63.027344 170.21875 C 63.816406 170.132812 64.609375 170.050781 65.402344 169.925781 C 66.527344 169.800781 67.652344 169.675781 68.78125 169.550781 C 70.824219 169.300781 72.867188 169.007812 74.867188 168.800781 C 79.496094 168.257812 84.125 167.800781 88.714844 167.21875 C 90.382812 167.007812 92.050781 166.800781 93.71875 166.507812 C 94.632812 166.382812 95.511719 166.21875 96.429688 166.132812 C 97.261719 166.050781 98.054688 166.050781 98.886719 165.925781 C 101.640625 165.507812 103.515625 162.675781 103.015625 160.007812 C 102.765625 158.714844 102.058594 157.507812 100.972656 156.757812 C 100.054688 156.089844 99.011719 155.796875 97.96875 155.796875 C 97.679688 155.757812 97.386719 155.796875 97.09375 155.839844 Z M 97.09375 155.839844 " fill-opacity="1" fill-rule="nonzero"/><path fill="#e32323" d="M 75.242188 149.128906 C 74.703125 151.632812 74.117188 154.171875 73.410156 156.632812 C 72.699219 159.089844 71.992188 161.550781 71.367188 164.050781 C 70.28125 168.300781 69.363281 172.550781 68.320312 176.84375 C 68.195312 177.386719 68.070312 177.886719 67.90625 178.425781 C 67.488281 179.675781 67.90625 181.261719 68.613281 182.34375 C 69.324219 183.46875 70.488281 184.261719 71.78125 184.554688 C 73.117188 184.84375 74.535156 184.59375 75.703125 183.84375 C 76.035156 183.554688 76.371094 183.304688 76.703125 183.011719 C 77.285156 182.34375 77.703125 181.59375 77.914062 180.71875 C 78.289062 179.636719 78.496094 178.550781 78.746094 177.425781 C 78.996094 176.34375 79.246094 175.21875 79.496094 174.136719 C 80.039062 171.925781 80.539062 169.675781 81.082031 167.46875 C 81.582031 165.257812 82.167969 163.089844 82.832031 160.925781 C 83.5 158.546875 84.125 156.214844 84.710938 153.839844 C 84.917969 153.046875 85.085938 152.214844 85.25 151.421875 C 85.835938 148.714844 84.125 145.921875 81.414062 145.296875 C 81.039062 145.214844 80.664062 145.171875 80.332031 145.171875 C 77.953125 145.171875 75.746094 146.796875 75.242188 149.128906 Z M 75.242188 149.128906 " fill-opacity="1" fill-rule="nonzero"/></svg>